<?xml version="1.0" encoding="UTF-8"?>
<svg width="214px" height="30px" viewBox="0 0 214 30" version="1.1" xmlns="http://www.w3.org/2000/svg" xmlns:xlink="http://www.w3.org/1999/xlink">
    <g id="Page-1" stroke="none" stroke-width="1" fill="none" fill-rule="evenodd">
        <g id="Desktop-Copy-2" transform="translate(-302.000000, -44.000000)">
            <g id="Group-3" transform="translate(299.000000, 44.000000)">
                <g id="Group-5" transform="translate(3.000000, 0.000000)">
                    <g id="Group" transform="translate(0.841806, 0.446009)">
                        <path d="M14.8816455,28.3736119 C14.377643,27.5576078 13.7836489,26.6756166 13.0996455,25.7276119 C12.4156421,24.7796071 11.6716495,23.8316166 10.8676455,22.8836119 C10.0636415,21.9356071 9.22964985,21.0236163 8.36564553,20.1476119 C7.50164121,19.2716075 6.63764985,18.4976152 5.77364553,17.8256119 L5.77364553,28.3736119 L0.157645526,28.3736119 L0.157645526,3.42561188 L5.77364553,3.42561188 L5.77364553,12.8576119 C7.23765285,11.3216042 8.70763815,9.71962022 10.1836455,8.05161188 C11.6596529,6.38360354 13.0336392,4.84161896 14.3056455,3.42561188 L20.9656455,3.42561188 C19.261637,5.44162196 17.5516541,7.38560252 15.8356455,9.25761188 C14.1196369,11.1296212 12.313655,13.0136024 10.4176455,14.9096119 C12.4096555,16.5656202 14.3356362,18.5336005 16.1956455,20.8136119 C18.0556548,23.0936233 19.837637,25.6135981 21.5416455,28.3736119 L14.8816455,28.3736119 Z M40.5856455,27.7256119 C39.673641,27.9896132 38.4976527,28.2356107 37.0576455,28.4636119 C35.6176383,28.691613 34.1056534,28.8056119 32.5216455,28.8056119 C30.9136375,28.8056119 29.5756509,28.589614 28.5076455,28.1576119 C27.4396402,27.7256097 26.5936486,27.1196158 25.9696455,26.3396119 C25.3456424,25.559608 24.9016468,24.6296173 24.6376455,23.5496119 C24.3736442,22.4696065 24.2416455,21.2816184 24.2416455,19.9856119 L24.2416455,9.43761188 L29.6056455,9.43761188 L29.6056455,19.3376119 C29.6056455,21.0656205 29.8336432,22.313608 30.2896455,23.0816119 C30.7456478,23.8496157 31.5976393,24.2336119 32.8456455,24.2336119 C33.2296474,24.2336119 33.6376434,24.2156121 34.0696455,24.1796119 C34.5016477,24.1436117 34.8856438,24.1016121 35.2216455,24.0536119 L35.2216455,9.43761188 L40.5856455,9.43761188 L40.5856455,27.7256119 Z M57.7576455,18.7616119 C57.7576455,15.3055946 56.4856582,13.5776119 53.9416455,13.5776119 C53.3896428,13.5776119 52.8436482,13.6496112 52.3036455,13.7936119 C51.7636428,13.9376126 51.3256472,14.1176108 50.9896455,14.3336119 L50.9896455,24.0896119 C51.2536468,24.1376121 51.5896435,24.1796117 51.9976455,24.2156119 C52.4056476,24.2516121 52.8496431,24.2696119 53.3296455,24.2696119 C54.7936528,24.2696119 55.8976418,23.7656169 56.6416455,22.7576119 C57.3856492,21.7496068 57.7576455,20.4176202 57.7576455,18.7616119 Z M63.2296455,18.9056119 C63.2296455,20.4176194 63.0076477,21.7856058 62.5636455,23.0096119 C62.1196433,24.233618 61.4776497,25.2776076 60.6376455,26.1416119 C59.7976413,27.0056162 58.7656516,27.6716095 57.5416455,28.1396119 C56.3176394,28.6076142 54.9256533,28.8416119 53.3656455,28.8416119 C52.7176423,28.8416119 52.0396491,28.8116122 51.3316455,28.7516119 C50.623642,28.6916116 49.9276489,28.6136124 49.2436455,28.5176119 C48.5596421,28.4216114 47.9056486,28.3076125 47.2816455,28.1756119 C46.6576424,28.0436112 46.1056479,27.9056126 45.6256455,27.7616119 L45.6256455,1.30161188 L50.9896455,0.437611884 L50.9896455,9.86961188 C51.5896485,9.60561056 52.2136423,9.4016126 52.8616455,9.25761188 C53.5096488,9.11361116 54.2056418,9.04161188 54.9496455,9.04161188 C56.2936522,9.04161188 57.4816404,9.27560954 58.5136455,9.74361188 C59.5456507,10.2116142 60.409642,10.8776076 61.1056455,11.7416119 C61.801649,12.6056162 62.3296437,13.6436058 62.6896455,14.8556119 C63.0496473,16.0676179 63.2296455,17.4176044 63.2296455,18.9056119 Z M66.4696455,19.0496119 C66.4696455,17.3696035 66.7276429,15.8996182 67.2436455,14.6396119 C67.7596481,13.3796056 68.4376413,12.3296161 69.2776455,11.4896119 C70.1176497,10.6496077 71.0836401,10.013614 72.1756455,9.58161188 C73.267651,9.14960972 74.3896398,8.93361188 75.5416455,8.93361188 C78.229659,8.93361188 80.3536377,9.75560366 81.9136455,11.3996119 C83.4736533,13.0436201 84.2536455,15.4615959 84.2536455,18.6536119 C84.2536455,18.9656134 84.2416456,19.30761 84.2176455,19.6796119 C84.1936454,20.0516137 84.1696456,20.3816104 84.1456455,20.6696119 L71.9776455,20.6696119 C72.0976461,21.7736174 72.613641,22.6496086 73.5256455,23.2976119 C74.4376501,23.9456151 75.6616378,24.2696119 77.1976455,24.2696119 C78.1816504,24.2696119 79.1476408,24.1796128 80.0956455,23.9996119 C81.0436503,23.819611 81.8176425,23.5976132 82.4176455,23.3336119 L83.1376455,27.6896119 C82.8496441,27.8336126 82.4656479,27.9776112 81.9856455,28.1216119 C81.5056431,28.2656126 80.9716485,28.3916113 80.3836455,28.4996119 C79.7956426,28.6076124 79.1656489,28.6976115 78.4936455,28.7696119 C77.8216422,28.8416122 77.1496489,28.8776119 76.4776455,28.8776119 C74.773637,28.8776119 73.2916518,28.6256144 72.0316455,28.1216119 C70.7716392,27.6176094 69.7276497,26.9276163 68.8996455,26.0516119 C68.0716414,25.1756075 67.4596475,24.1376179 67.0636455,22.9376119 C66.6676435,21.7376059 66.4696455,20.4416188 66.4696455,19.0496119 Z M79.0696455,16.9976119 C79.0456454,16.5416096 78.9676462,16.097614 78.8356455,15.6656119 C78.7036449,15.2336097 78.4996469,14.8496136 78.2236455,14.5136119 C77.9476441,14.1776102 77.5996476,13.901613 77.1796455,13.6856119 C76.7596434,13.4696108 76.2376486,13.3616119 75.6136455,13.3616119 C75.0136425,13.3616119 74.4976477,13.4636109 74.0656455,13.6676119 C73.6336434,13.8716129 73.273647,14.1416102 72.9856455,14.4776119 C72.6976441,14.8136136 72.4756463,15.2036097 72.3196455,15.6476119 C72.1636447,16.0916141 72.0496459,16.5416096 71.9776455,16.9976119 L79.0696455,16.9976119 Z M93.7576455,28.3736119 L88.3936455,28.3736119 L88.3936455,9.43761188 L93.7576455,9.43761188 L93.7576455,28.3736119 Z M94.2616455,3.96561188 C94.2616455,4.9496168 93.9436487,5.72360906 93.3076455,6.28761188 C92.6716423,6.8516147 91.9216498,7.13361188 91.0576455,7.13361188 C90.1936412,7.13361188 89.4436487,6.8516147 88.8076455,6.28761188 C88.1716423,5.72360906 87.8536455,4.9496168 87.8536455,3.96561188 C87.8536455,2.98160696 88.1716423,2.2076147 88.8076455,1.64361188 C89.4436487,1.07960906 90.1936412,0.797611884 91.0576455,0.797611884 C91.9216498,0.797611884 92.6716423,1.07960906 93.3076455,1.64361188 C93.9436487,2.2076147 94.2616455,2.98160696 94.2616455,3.96561188 Z M97.8976455,18.9056119 C97.8976455,17.537605 98.1196433,16.2476179 98.5636455,15.0356119 C99.0076477,13.8236058 99.6496413,12.7676164 100.489646,11.8676119 C101.32965,10.9676074 102.34964,10.2536145 103.549646,9.72561188 C104.749652,9.19760924 106.117638,8.93361188 107.653646,8.93361188 C108.661651,8.93361188 109.585641,9.02361098 110.425646,9.20361188 C111.26565,9.38361278 112.081642,9.6416102 112.873646,9.97761188 L111.757646,14.2616119 C111.253643,14.0696109 110.701649,13.9016126 110.101646,13.7576119 C109.501643,13.6136112 108.829649,13.5416119 108.085646,13.5416119 C106.501638,13.5416119 105.319649,14.033607 104.539646,15.0176119 C103.759642,16.0016168 103.369646,17.2976038 103.369646,18.9056119 C103.369646,20.6096204 103.735642,21.9296072 104.467646,22.8656119 C105.199649,23.8016166 106.477636,24.2696119 108.301646,24.2696119 C108.949649,24.2696119 109.645642,24.2096125 110.389646,24.0896119 C111.133649,23.9696113 111.817642,23.7776132 112.441646,23.5136119 L113.197646,27.9056119 C112.573642,28.1696132 111.79365,28.3976109 110.857646,28.5896119 C109.921641,28.7816128 108.889651,28.8776119 107.761646,28.8776119 C106.033637,28.8776119 104.545652,28.6196145 103.297646,28.1036119 C102.049639,27.5876093 101.02365,26.8856163 100.219646,25.9976119 C99.4156415,25.1096074 98.8276474,24.0596179 98.4556455,22.8476119 C98.0836437,21.6356058 97.8976455,20.321619 97.8976455,18.9056119 Z M134.509646,18.8696119 C134.509646,20.3576193 134.293648,21.7196057 133.861646,22.9556119 C133.429643,24.1916181 132.80565,25.2476075 131.989646,26.1236119 C131.173641,26.9996163 130.195651,27.6776095 129.055646,28.1576119 C127.91564,28.6376143 126.637653,28.8776119 125.221646,28.8776119 C123.829639,28.8776119 122.563651,28.6376143 121.423646,28.1576119 C120.28364,27.6776095 119.30565,26.9996163 118.489646,26.1236119 C117.673641,25.2476075 117.037648,24.1916181 116.581646,22.9556119 C116.125643,21.7196057 115.897646,20.3576193 115.897646,18.8696119 C115.897646,17.3816044 116.131643,16.025618 116.599646,14.8016119 C117.067648,13.5776058 117.715641,12.5336162 118.543646,11.6696119 C119.37165,10.8056076 120.35564,10.1336143 121.495646,9.65361188 C122.635651,9.17360948 123.877639,8.93361188 125.221646,8.93361188 C126.589652,8.93361188 127.84364,9.17360948 128.983646,9.65361188 C130.123651,10.1336143 131.101641,10.8056076 131.917646,11.6696119 C132.73365,12.5336162 133.369643,13.5776058 133.825646,14.8016119 C134.281648,16.025618 134.509646,17.3816044 134.509646,18.8696119 Z M129.037646,18.8696119 C129.037646,17.2136036 128.707649,15.9116166 128.047646,14.9636119 C127.387642,14.0156071 126.445652,13.5416119 125.221646,13.5416119 C123.997639,13.5416119 123.049649,14.0156071 122.377646,14.9636119 C121.705642,15.9116166 121.369646,17.2136036 121.369646,18.8696119 C121.369646,20.5256202 121.705642,21.839607 122.377646,22.8116119 C123.049649,23.7836167 123.997639,24.2696119 125.221646,24.2696119 C126.445652,24.2696119 127.387642,23.7836167 128.047646,22.8116119 C128.707649,21.839607 129.037646,20.5256202 129.037646,18.8696119 Z M138.649646,10.0856119 C139.56165,9.82161056 140.737638,9.57561302 142.177646,9.34761188 C143.617653,9.11961074 145.129638,9.00561188 146.713646,9.00561188 C148.321654,9.00561188 149.65964,9.21560978 150.727646,9.63561188 C151.795651,10.055614 152.641642,10.649608 153.265646,11.4176119 C153.889649,12.1856157 154.333644,13.0976066 154.597646,14.1536119 C154.861647,15.2096172 154.993646,16.3856054 154.993646,17.6816119 L154.993646,28.3736119 L149.629646,28.3736119 L149.629646,18.3296119 C149.629646,16.6016032 149.401648,15.3776155 148.945646,14.6576119 C148.489643,13.9376083 147.637652,13.5776119 146.389646,13.5776119 C146.005644,13.5776119 145.597648,13.5956117 145.165646,13.6316119 C144.733643,13.6676121 144.349647,13.7096116 144.013646,13.7576119 L144.013646,28.3736119 L138.649646,28.3736119 L138.649646,10.0856119 Z M165.289646,24.5216119 C166.27365,24.5216119 166.969643,24.4256128 167.377646,24.2336119 C167.785648,24.0416109 167.989646,23.6696146 167.989646,23.1176119 C167.989646,22.6856097 167.725648,22.3076135 167.197646,21.9836119 C166.669643,21.6596103 165.865651,21.2936139 164.785646,20.8856119 C163.945641,20.5736103 163.183649,20.2496136 162.499646,19.9136119 C161.815642,19.5776102 161.233648,19.1756142 160.753646,18.7076119 C160.273643,18.2396095 159.901647,17.6816151 159.637646,17.0336119 C159.373644,16.3856086 159.241646,15.6056164 159.241646,14.6936119 C159.241646,12.917603 159.901639,11.513617 161.221646,10.4816119 C162.541652,9.44960672 164.353634,8.93361188 166.657646,8.93361188 C167.809651,8.93361188 168.91364,9.03561086 169.969646,9.23961188 C171.025651,9.4436129 171.865642,9.66561068 172.489646,9.90561188 L171.553646,14.0816119 C170.929642,13.8656108 170.251649,13.6736127 169.519646,13.5056119 C168.787642,13.337611 167.96565,13.2536119 167.053646,13.2536119 C165.373637,13.2536119 164.533646,13.7216072 164.533646,14.6576119 C164.533646,14.873613 164.569645,15.065611 164.641646,15.2336119 C164.713646,15.4016127 164.857644,15.5636111 165.073646,15.7196119 C165.289647,15.8756127 165.583644,16.043611 165.955646,16.2236119 C166.327647,16.4036128 166.801643,16.6016108 167.377646,16.8176119 C168.553651,17.249614 169.525642,17.6756098 170.293646,18.0956119 C171.061649,18.515614 171.667643,18.9716094 172.111646,19.4636119 C172.555648,19.9556143 172.867645,20.5016089 173.047646,21.1016119 C173.227646,21.7016149 173.317646,22.3976079 173.317646,23.1896119 C173.317646,25.0616212 172.615653,26.4776071 171.211646,27.4376119 C169.807639,28.3976167 167.821658,28.8776119 165.253646,28.8776119 C163.573637,28.8776119 162.175651,28.7336133 161.059646,28.4456119 C159.94364,28.1576104 159.169648,27.9176128 158.737646,27.7256119 L159.637646,23.3696119 C160.54965,23.7296137 161.485641,24.0116109 162.445646,24.2156119 C163.40565,24.4196129 164.353641,24.5216119 165.289646,24.5216119 Z" id="Kubeicons" fill="#326CE5"></path>
                        <path d="M185.010209,27.0156119 L185.164209,27.0156119 L187.362209,21.3736119 L188.580209,21.3736119 L185.626209,28.3736119 L184.394209,28.3736119 L181.384209,21.3736119 L182.672209,21.3736119 L185.010209,27.0156119 Z M189.952209,23.4736119 C189.952209,22.6802746 190.022209,21.968615 190.162209,21.3386119 C190.30221,20.7086087 190.512208,20.1766141 190.792209,19.7426119 C191.072211,19.3086097 191.426874,18.9772797 191.856209,18.7486119 C192.285545,18.5199441 192.794206,18.4056119 193.382209,18.4056119 C194.007546,18.4056119 194.537207,18.5176108 194.971209,18.7416119 C195.405212,18.965613 195.757541,19.2922764 196.028209,19.7216119 C196.298877,20.1509474 196.494875,20.6806087 196.616209,21.3106119 C196.737543,21.940615 196.798209,22.6616078 196.798209,23.4736119 C196.798209,24.2669492 196.72821,24.9786087 196.588209,25.6086119 C196.448209,26.238615 196.238211,26.7706097 195.958209,27.2046119 C195.678208,27.6386141 195.323545,27.9699441 194.894209,28.1986119 C194.464874,28.4272797 193.956212,28.5416119 193.368209,28.5416119 C192.752206,28.5416119 192.227212,28.4179465 191.793209,28.1706119 C191.359207,27.9232773 191.004544,27.5756141 190.729209,27.1276119 C190.453875,26.6796096 190.255543,26.1452817 190.134209,25.5246119 C190.012875,24.9039421 189.952209,24.2202823 189.952209,23.4736119 Z M195.650209,23.4736119 C195.650209,22.9789427 195.62221,22.5076141 195.566209,22.0596119 L191.408209,25.8536119 C191.566877,26.3856145 191.804875,26.810277 192.122209,27.1276119 C192.439544,27.4449468 192.854874,27.6036119 193.368209,27.6036119 C194.189547,27.6036119 194.775208,27.2629486 195.125209,26.5816119 C195.475211,25.9002751 195.650209,24.8642855 195.650209,23.4736119 Z M191.114209,23.4736119 C191.114209,23.7069464 191.121209,23.9309441 191.135209,24.1456119 C191.14921,24.3602796 191.165543,24.5702775 191.184209,24.7756119 L195.356209,20.9956119 C195.197542,20.4916094 194.961878,20.09028 194.649209,19.7916119 C194.336541,19.4929437 193.914212,19.3436119 193.382209,19.3436119 C192.551539,19.3436119 191.965878,19.6866085 191.625209,20.3726119 C191.284541,21.0586153 191.114209,22.0922716 191.114209,23.4736119 Z M200.844209,27.6036119 C200.844209,27.3049437 200.928209,27.073946 201.096209,26.9106119 C201.26421,26.7472777 201.488208,26.6656119 201.768209,26.6656119 C202.066878,26.6656119 202.300209,26.7472777 202.468209,26.9106119 C202.63621,27.073946 202.720209,27.3049437 202.720209,27.6036119 C202.720209,27.8742799 202.63621,28.0982777 202.468209,28.2756119 C202.300209,28.4529461 202.066878,28.5416119 201.768209,28.5416119 C201.488208,28.5416119 201.26421,28.4529461 201.096209,28.2756119 C200.928209,28.0982777 200.844209,27.8742799 200.844209,27.6036119 Z M209.454209,27.5756119 C209.827545,27.5756119 210.170541,27.5266124 210.483209,27.4286119 C210.795878,27.3306114 211.068875,27.1929461 211.302209,27.0156119 C211.535544,26.8382777 211.717542,26.6236131 211.848209,26.3716119 C211.978877,26.1196106 212.044209,25.8396134 212.044209,25.5316119 C212.044209,24.8876087 211.817878,24.4279466 211.365209,24.1526119 C210.912541,23.8772772 210.303547,23.7396119 209.538209,23.7396119 L208.642209,23.7396119 L208.642209,23.0676119 L211.400209,19.5816119 L207.214209,19.5816119 L207.214209,18.5736119 L212.744209,18.5736119 L212.744209,19.5816119 L209.986209,22.8156119 L210.210209,22.8156119 C210.639545,22.8156119 211.031541,22.8762779 211.386209,22.9976119 C211.740878,23.1189458 212.048875,23.2916108 212.310209,23.5156119 C212.571544,23.739613 212.774542,24.010277 212.919209,24.3276119 C213.063877,24.6449468 213.136209,25.0042765 213.136209,25.4056119 C213.136209,25.9096144 213.03821,26.3576099 212.842209,26.7496119 C212.646208,27.1416138 212.380211,27.4706106 212.044209,27.7366119 C211.708208,28.0026132 211.313878,28.2032779 210.861209,28.3386119 C210.408541,28.4739459 209.925545,28.5416119 209.412209,28.5416119 C208.936207,28.5416119 208.523211,28.5066122 208.173209,28.4366119 C207.823208,28.3666115 207.503544,28.2802791 207.214209,28.1776119 L207.494209,27.1976119 C207.736877,27.3096124 208.021541,27.4006115 208.348209,27.4706119 C208.674878,27.5406122 209.043541,27.5756119 209.454209,27.5756119 Z" id="v0.3" fill="#828282"></path>
                    </g>
                </g>
            </g>
        </g>
    </g>
</svg>
